#!OML:ASF H:\Punching\Project 1\Capture day 1\Session 1\female.ASF
:FULLY-SPECIFIED
:DEGREES
300
root -0.119936 14.9342 -1.82439 7.94609 -0.95428 -0.702948
lowerback 2.92823 -0.703514 0.400825
upperback -5.84377 -0.951847 -0.455444
thorax -7.76629 -0.509558 -0.610286
lowerneck -13.1005 1.66596 8.79582
upperneck 29.7646 1.52858 -4.75814
head 12.0546 1.06602 -3.10513
rclavicle -5.81445e-015 -8.94531e-015
rhumerus 31.8296 11.5456 -62.0764
rradius 65.8172
rwrist 0.0244644
rhand 29.8669 -34.6095
rfingers 7.12502
rthumb 53.5873 -53.7228
lclavicle -5.81445e-015 -8.94531e-015
lhumerus 27.7308 -10.2243 56.7816
lradius 79.8559
lwrist -9.20775
lhand 34.5479 25.3548
lfingers 7.12502
lthumb 57.7426 41.3049
rfemur -26.4831 -4.9074 16.6981
rtibia 49.7797
rfoot -27.9733 -8.79662
rtoes -12.582
lfemur -27.4025 1.71261 -16.8458
ltibia 49.9794
lfoot -25.3721 9.71743
ltoes -13.0224
301
root -0.123929 14.936 -1.82321 7.94165 -0.948396 -0.712324
lowerback 2.96253 -0.770879 0.383452
upperback -5.83872 -1.04064 -0.411372
thorax -7.78103 -0.55075 -0.545323
lowerneck -13.1026 1.7537 8.73583
upperneck 29.8171 1.70305 -4.85649
head 12.0899 1.12588 -3.10935
rclavicle -1.22004e-014 -1.59028e-015
rhumerus 31.9842 11.692 -62.12
rradius 65.7301
rwrist -0.00792586
rhand 29.7157 -34.5794
rfingers 7.12502
rthumb 53.4511 -53.7819
lclavicle -1.22004e-014 -1.59028e-015
lhumerus 27.6165 -10.0252 56.7982
lradius 79.8153
lwrist -9.23559
lhand 34.5379 25.1884
lfingers 7.12502
lthumb 57.7338 41.1463
rfemur -26.4483 -4.87487 16.7245
rtibia 49.7568
rfoot -27.9902 -8.80326
rtoes -12.4967
lfemur -27.3736 1.73691 -16.8173
ltibia 49.9574
lfoot -25.3855 9.69192
ltoes -13.0222
302
root -0.124939 14.9375 -1.8213 7.95138 -0.943869 -0.704097
lowerback 2.97656 -0.783607 0.374433
upperback -5.86441 -1.05828 -0.408176
thorax -7.81699 -0.5589 -0.534826
lowerneck -13.0633 1.80044 8.75877
upperneck 29.9039 1.80373 -4.96286
head 12.1256 1.16224 -3.14215
rclavicle 1.93691e-014 -7.95139e-016
rhumerus 31.9726 11.7098 -62.2172
rradius 65.694
rwrist 0.065149
rhand 29.6714 -34.4821
rfingers 7.12502
rthumb 53.4113 -53.7105
lclavicle 1.93691e-014 -7.95139e-016
lhumerus 27.5316 -10.0075 56.816
lradius 79.8208
lwrist -9.23249
lhand 34.5199 25.1253
lfingers 7.12502
lthumb 57.7182 41.0969
rfemur -26.437 -4.88123 16.7211
rtibia 49.7378
rfoot -27.9935 -8.80849
rtoes -12.5421
lfemur -27.3655 1.7431 -16.8233
ltibia 49.9368
lfoot -25.3955 9.67608
ltoes -12.9583
303
root -0.126334 14.9386 -1.82063 7.96267 -0.958029 -0.710783
lowerback 2.96566 -0.773028 0.385454
upperback -5.84742 -1.04382 -0.41678
thorax -7.79245 -0.552669 -0.551701
lowerneck -13.1399 1.84529 8.7715
upperneck 30.027 1.8849 -5.03841
head 12.1985 1.19216 -3.16542
rclavicle 2.43511e-015 -8.54774e-015
rhumerus 32.0072 11.6833 -62.2156
rradius 65.6835
rwrist 0.0575766
rhand 29.6478 -34.4466
rfingers 7.12502
rthumb 53.39 -53.6888
lclavicle 2.43511e-015 -8.54774e-015
lhumerus 27.5628 -9.97853 56.8307
lradius 79.8274
lwrist -9.19483
lhand 34.5084 25.1503
lfingers 7.12502
lthumb 57.7081 41.1308
rfemur -26.4411 -4.86579 16.7323
rtibia 49.7141
rfoot -27.9817 -8.7963
rtoes -12.5106
lfemur -27.3629 1.76658 -16.8131
ltibia 49.9138
lfoot -25.376 9.66891
ltoes -12.9728
304
root -0.127755 14.9396 -1.82029 7.99255 -0.936337 -0.701033
lowerback 2.94759 -0.77173 0.383701
upperback -5.84757 -1.0433 -0.432814
thorax -7.78234 -0.552858 -0.567831
lowerneck -13.1601 1.88094 8.83811
upperneck 30.1199 1.96043 -5.16882
head 12.2482 1.2187 -3.21911
rclavicle -3.00413e-014 -3.97569e-016
rhumerus 32.0415 11.6632 -62.2124
rradius 65.6646
rwrist 0.0368681
rhand 29.663 -34.5245
rfingers 7.12502
rthumb 53.4037 -53.7578
lclavicle -3.00413e-014 -3.97569e-016
lhumerus 27.5931 -9.97564 56.8356
lradius 79.8245
lwrist -9.18662
lhand 34.4818 25.1511
lfingers 7.12502
lthumb 57.6848 41.152
rfemur -26.4598 -4.89791 16.735
rtibia 49.6924
rfoot -27.9665 -8.79925
rtoes -12.6267
lfemur -27.3915 1.75689 -16.8157
ltibia 49.8954
lfoot -25.3621 9.64654
ltoes -12.9103
305
root -0.128572 14.9408 -1.81892 7.99432 -0.950074 -0.71764
lowerback 2.99221 -0.764236 0.407756
upperback -5.87608 -1.03179 -0.435021
thorax -7.8396 -0.548856 -0.583938
lowerneck -13.1742 1.92437 8.89079
upperneck 30.2603 2.05071 -5.29224
head 12.3173 1.25198 -3.26707
rclavicle 5.61567e-015 4.17448e-015
rhumerus 32.0021 11.6833 -62.2241
rradius 65.6578
rwrist 0.0607831
rhand 29.6971 -34.436
rfingers 7.12502
rthumb 53.4344 -53.6493
lclavicle 5.61567e-015 4.17448e-015
lhumerus 27.5327 -9.98627 56.8449
lradius 79.8356
lwrist -9.19462
lhand 34.4817 25.1784
lfingers 7.12502
lthumb 57.6847 41.1794
rfemur -26.4508 -4.89087 16.7523
rtibia 49.6651
rfoot -27.9726 -8.74804
rtoes -12.5148
lfemur -27.3773 1.78192 -16.7972
ltibia 49.875
lfoot -25.3504 9.64996
ltoes -12.9695
306
root -0.12929 14.9422 -1.8172 8.01994 -0.932321 -0.737266
lowerback 2.9613 -0.768629 0.447532
upperback -5.88133 -1.03492 -0.43351
thorax -7.82799 -0.552766 -0.604698
lowerneck -13.086 1.94238 8.82936
upperneck 30.2969 2.11417 -5.32637
head 12.3183 1.2706 -3.26135
rclavicle 9.4547e-015 -9.93923e-016
rhumerus 32.0302 11.7014 -62.2214
rradius 65.6502
rwrist 0.0580701
rhand 29.6791 -34.4919
rfingers 7.12502
rthumb 53.4182 -53.7158
lclavicle 9.4547e-015 -9.93923e-016
lhumerus 27.5098 -9.96539 56.8653
lradius 79.8201
lwrist -9.21686
lhand 34.4477 25.17
lfingers 7.12502
lthumb 57.655 41.1971
rfemur -26.4538 -4.9026 16.7813
rtibia 49.6354
rfoot -27.9599 -8.74311
rtoes -12.5304
lfemur -27.3948 1.77093 -16.7713
ltibia 49.8566
lfoot -25.3349 9.64834
ltoes -12.9728
